HIERARCHY
ROOT Hips
{
	OFFSET -3.958830 18.904000 13.208200
	CHANNELS 6 Xposition Yposition Zposition Zrotation Yrotation Xrotation 
	JOINT LHipJoint
	{
		OFFSET 0.000000 0.000000 0.000000
		CHANNELS 3 Zrotation Yrotation Xrotation
		JOINT LeftUpLeg
		{
			OFFSET 1.800000 -1.400000 0.085000
			CHANNELS 3 Zrotation Yrotation Xrotation
			JOINT LeftLeg
			{
				OFFSET 2.215000 -6.000000 0.000000
				CHANNELS 3 Zrotation Yrotation Xrotation
				JOINT LeftFoot
				{
					OFFSET 2.500000 -6.900000 0.000000
					CHANNELS 3 Zrotation Yrotation Xrotation
					JOINT LeftToeBase
					{
						OFFSET 0.200000 -0.500000 1.950000
						CHANNELS 3 Zrotation Yrotation Xrotation
						End Site
						{
							OFFSET 0.000000 0.000000 0.000000
						}
					}
				}
			}
		}
	}
	JOINT RHipJoint
	{
		OFFSET 0.000000 0.000000 0.000000
		CHANNELS 3 Zrotation Yrotation Xrotation
		JOINT RightUpLeg
		{
			OFFSET -1.800000 -1.400000 0.085000
			CHANNELS 3 Zrotation Yrotation Xrotation
			JOINT RightLeg
			{
				OFFSET -2.215000 -6.000000 0.000000
				CHANNELS 3 Zrotation Yrotation Xrotation
				JOINT RightFoot
				{
					OFFSET -2.500000 -6.900000 0.000000
					CHANNELS 3 Zrotation Yrotation Xrotation
					JOINT RightToeBase
					{
						OFFSET -0.200000 -0.500000 1.950000
						CHANNELS 3 Zrotation Yrotation Xrotation
						End Site
						{
							OFFSET 0.000000 0.000000 0.000000
						}
					}
				}
			}
		}
	}
	JOINT LowerBack
	{
		OFFSET 0.000000 0.000000 0.000000
		CHANNELS 3 Zrotation Yrotation Xrotation
		JOINT Spine
		{
			OFFSET -0.087000 1.940000 -0.288900
			CHANNELS 3 Zrotation Yrotation Xrotation
			JOINT Spine1
			{
				OFFSET 0.000000 1.950000 0.060000
				CHANNELS 3 Zrotation Yrotation Xrotation
				JOINT Neck
				{
					OFFSET 0.000000 0.000000 0.000000
					CHANNELS 3 Zrotation Yrotation Xrotation
					JOINT Neck1
					{
						OFFSET 0.000000 1.600000 0.340000
						CHANNELS 3 Zrotation Yrotation Xrotation
						JOINT Head
						{
							OFFSET 0.000000 1.667000 -0.240000
							CHANNELS 3 Zrotation Yrotation Xrotation
							End Site
							{
								OFFSET 0.000000 0.000000 0.000000
							}
						}
					}
				}
				JOINT LeftShoulder
				{
					OFFSET 0.000000 0.000000 0.000000
					CHANNELS 3 Zrotation Yrotation Xrotation
					JOINT LeftArm
					{
						OFFSET 2.700000 1.550000 -0.730000
						CHANNELS 3 Zrotation Yrotation Xrotation
						JOINT LeftForeArm
						{
							OFFSET 5.450000 0.000000 0.000000
							CHANNELS 3 Zrotation Yrotation Xrotation
							JOINT LeftHand
							{
								OFFSET 3.450000 0.000000 0.000000
								CHANNELS 3 Zrotation Yrotation Xrotation
								JOINT LeftHandIndex1
								{
									OFFSET 0.750000 0.000000 0.000000
									CHANNELS 3 Zrotation Yrotation Xrotation
									End Site
									{
										OFFSET 0.000000 0.000000 0.000000
									}
								}
							}
						}
					}
				}
				JOINT RightShoulder
				{
					OFFSET 0.000000 0.000000 0.000000
					CHANNELS 3 Zrotation Yrotation Xrotation
					JOINT RightArm
					{
						OFFSET -2.700000 1.550000 -0.730000
						CHANNELS 3 Zrotation Yrotation Xrotation
						JOINT RightForeArm
						{
							OFFSET -5.450000 0.000000 0.000000
							CHANNELS 3 Zrotation Yrotation Xrotation
							JOINT RightHand
							{
								OFFSET -3.450000 0.000000 0.000000
								CHANNELS 3 Zrotation Yrotation Xrotation
								JOINT RightHandIndex1
								{
									OFFSET -0.750000 0.000000 0.000000
									CHANNELS 3 Zrotation Yrotation Xrotation
									End Site
									{
										OFFSET 0.000000 0.000000 0.000000
									}
								}
							}
						}
					}
				}
			}
		}
	}
}
MOTION
Frames: 13
Frame Time: 0.016667
-1.259600 14.152930 -3.144310 -76.780320 30.038791 -80.489309 -15.833426 12.299036 4.001692 -3.876452 -7.529580 -38.355820 4.601630 8.749380 49.052343 0.182287 8.310918 1.741114 -0.100180 -0.392050 -0.155630 17.989406 -7.751812 4.724030 -15.909264 15.321833 -36.917629 19.144575 -24.956730 70.823426 -2.334975 -13.197932 0.240524 -0.149500 0.596380 0.006550 -2.212250 -4.782260 -9.160003 2.075696 6.243238 56.001646 2.437685 7.626215 16.150178 3.318344 3.912652 -15.504344 3.183061 -3.633585 47.147044 14.886460 -9.437710 -4.735930 -12.733471 -25.115020 10.670146 -16.401207 -6.373276 0.910651 5.288170 0.438335 -0.930784 -3.985360 2.365266 0.633680 0.112160 -0.138970 0.152020 5.197767 27.668930 10.367798 -8.701014 -5.103497 -17.055528 -126.369073 14.672583 -42.039162 2.200027 -1.805853 -0.478890 0.560710 0.291780 -0.083610 
-1.270360 14.092600 -3.190570 -75.854799 28.907011 -80.157377 -15.725680 11.979170 4.038525 -4.214685 -7.913456 -39.586285 5.617943 7.878768 48.513553 0.226353 7.979777 1.851287 -0.025400 -0.289920 -0.091250 18.108187 -7.740804 4.869913 -18.012418 14.992703 -36.700934 27.203130 -27.587614 63.952742 -2.364116 -12.959656 0.296508 -0.135170 0.516810 0.026880 -2.575132 -4.062471 -9.303833 5.250575 3.820782 56.488079 -0.548343 6.802184 16.111121 4.100410 3.216652 -16.009688 1.892952 -2.897641 47.607331 12.645950 -8.208090 -4.000080 -12.645766 -25.407433 11.058393 -16.503758 -5.405961 0.799534 4.817425 0.087032 -0.821727 -3.903666 2.444968 0.593320 0.078440 -0.078680 0.179540 3.643815 27.960532 10.453001 -7.851931 -4.321899 -17.369844 -124.864673 14.747566 -41.698792 2.253013 -1.886404 -0.392920 0.497450 0.203580 -0.060260 
-1.266050 14.004210 -3.222400 -75.078152 29.589255 -78.981447 -15.683346 11.737050 4.213778 -6.047157 -8.966526 -40.087716 5.461410 7.042271 45.497132 0.098076 7.281704 2.107378 -0.032890 -0.296970 -0.101450 18.159199 -7.746411 4.897448 -20.679230 13.582435 -36.804005 33.447452 -26.738879 54.843337 -2.104749 -11.927293 0.566983 -0.134830 0.540810 0.019790 -2.723473 -3.722617 -9.363101 5.860706 2.828305 55.641118 -1.909889 6.124394 15.807184 4.388608 2.912049 -16.081223 1.457016 -2.326638 47.400131 12.075480 -7.607330 -3.159160 -12.788565 -25.435344 11.186999 -17.332830 -4.997396 0.821277 4.821017 0.234450 -0.802399 -3.911304 2.439810 0.586980 0.096720 -0.092680 0.191280 3.288915 27.882620 10.311499 -8.069764 -3.609506 -17.258029 -123.345752 15.277981 -40.981552 2.246355 -1.855329 -0.406610 0.514320 0.204840 -0.058150 
-1.282870 13.917440 -3.233000 -73.521533 29.574207 -76.674361 -15.666500 11.455510 4.257425 -7.374732 -9.323460 -41.257850 5.469082 6.215474 41.295029 -0.037303 6.350259 2.431567 -0.011760 -0.252430 -0.118440 18.228531 -7.578641 5.112273 -22.277585 13.614557 -39.318954 37.214898 -26.548109 51.172299 -2.048180 -11.641208 0.646337 -0.116040 0.548520 0.038360 -2.853157 -3.421310 -9.469066 6.448634 2.583980 54.038107 -2.611545 6.038640 15.647816 4.585253 2.370685 -15.646502 0.614982 -2.172118 46.394681 11.090630 -7.387420 -2.957680 -12.090606 -24.435339 10.757995 -18.921998 -5.960135 1.139186 4.326544 0.680119 -0.739514 -3.928832 2.493525 0.538220 0.113690 -0.097320 0.215910 2.256725 27.238140 9.969590 -7.888668 -2.537901 -17.305893 -120.828941 15.660722 -39.513254 2.245207 -1.863706 -0.371790 0.495180 0.186900 -0.029090 
-1.307940 13.840900 -3.207580 -70.931800 29.332974 -73.189317 -15.633610 11.278411 4.276321 -6.753620 -9.041378 -42.648849 1.245521 6.633884 34.275262 -0.245614 5.209922 2.830382 -0.036150 -0.244100 -0.188280 18.283516 -7.567026 5.220372 -21.514203 14.349672 -41.973061 36.991609 -23.114464 47.014893 -1.748187 -10.694501 0.910164 -0.095580 0.599330 0.024490 -2.993407 -2.991125 -9.483584 6.575915 3.263646 51.530144 -3.223644 6.917662 15.360738 4.533924 1.743908 -15.236085 -0.163226 -1.664954 44.377043 11.294180 -7.212840 -1.483300 -11.379047 -23.063121 10.051984 -19.908884 -7.148566 1.456228 3.882270 0.718523 -0.693355 -3.981700 2.532715 0.467800 0.159110 -0.155070 0.228870 1.649119 26.546469 9.846065 -7.507421 -1.853649 -16.882167 -120.288826 15.334636 -38.605335 2.236670 -1.899829 -0.375460 0.490300 0.201970 -0.000350 
-1.322440 13.725920 -3.168910 -68.684193 29.843652 -69.981279 -15.608410 11.122335 4.407819 -5.022989 -9.049746 -43.724148 -5.080790 7.371736 27.972894 -0.350814 4.652685 3.055643 -0.073840 -0.306070 -0.219810 18.308944 -7.644687 5.172900 -20.344327 14.364589 -43.626690 34.489066 -18.415412 41.477298 -1.315777 -9.191399 1.333676 -0.118920 0.666370 0.049270 -3.084644 -2.596992 -9.481806 6.180948 3.881853 48.506626 -3.849974 7.613661 14.978812 4.435568 1.381319 -15.083192 -0.683986 -1.731893 43.440976 10.712650 -7.502720 0.373220 -10.615001 -22.010618 9.591616 -21.030011 -8.043277 1.740075 3.858860 0.768602 -0.698832 -4.050906 2.541988 0.435700 0.207660 -0.197690 0.236910 1.125057 25.894792 9.867841 -6.878621 -1.413130 -16.448627 -119.227892 15.847948 -38.355074 2.228118 -1.889065 -0.388950 0.494680 0.232150 0.013090 
-1.326290 13.620050 -3.181580 -65.384032 31.057128 -67.467616 -15.619974 11.090696 4.448920 -5.085619 -9.081120 -43.411785 -8.397804 7.186349 23.050353 -0.442465 4.174358 3.230138 -0.082730 -0.301050 -0.272900 18.297992 -7.684113 5.110191 -20.306168 14.278535 -44.442600 31.525510 -15.828856 39.547897 -1.064734 -8.413488 1.556207 -0.098700 0.708690 0.066860 -3.062898 -2.483916 -9.415015 4.411185 5.116602 47.029716 -4.303819 8.218969 15.719185 4.526524 0.525425 -14.709004 -2.072454 -1.124286 42.262929 10.543840 -7.358900 0.241070 -9.564838 -20.856961 8.915972 -22.150088 -9.431832 2.059200 3.951567 0.908391 -0.718005 -4.110840 2.571185 0.401300 0.242790 -0.234090 0.243130 -0.140731 25.724568 9.819777 -6.450358 -0.298847 -16.626229 -118.296327 15.482139 -37.874051 2.204532 -1.916685 -0.388190 0.493670 0.264660 0.030600 
-1.304240 13.514380 -3.243120 -61.430638 32.163803 -66.333587 -15.654281 11.383937 4.428945 -7.964598 -8.988889 -41.573012 -6.197770 5.970084 20.226895 -0.508976 3.372125 3.509558 0.005410 -0.186550 -0.213540 18.213985 -7.874274 4.911824 -19.535115 13.923285 -43.011933 27.582597 -13.622043 38.879651 -0.893453 -7.738737 1.749291 -0.054750 0.638380 0.082720 -2.890626 -2.711946 -9.206790 2.219000 6.770220 47.627449 -4.400609 9.113049 16.449803 4.991266 -0.046723 -14.743439 -3.193003 -0.483165 41.956178 9.543000 -6.339270 -0.383130 -9.825333 -20.924828 8.668617 -22.544788 -10.285224 2.234071 3.611872 1.703527 -0.643268 -4.072606 2.642321 0.374250 0.216060 -0.193950 0.262790 -0.949359 26.892964 10.015620 -7.122460 -0.825203 -17.401685 -116.866126 15.390879 -37.598443 2.260035 -2.012276 -0.323520 0.439800 0.193250 0.039320 
-1.253940 13.417180 -3.336620 -58.264308 34.250750 -67.132801 -15.626076 11.762351 4.610714 -12.035675 -9.367807 -38.616557 -2.649350 4.921792 19.762327 -0.588736 2.886380 3.674354 0.060200 -0.106560 -0.181260 18.128692 -8.403557 4.347573 -18.888739 11.501474 -38.261643 23.204566 -10.878675 34.885770 -0.624290 -6.544662 2.112343 -0.020080 0.564260 0.064620 -2.822104 -2.796724 -8.910022 0.652504 7.243551 50.382917 -5.456023 9.048298 17.397639 5.395346 -1.172302 -15.063164 -5.820479 0.179175 42.618597 9.624640 -6.193840 -3.497820 -10.062120 -21.847364 8.889405 -22.248208 -10.391976 2.164999 3.406457 1.911660 -0.647380 -3.985772 2.619825 0.436230 0.149430 -0.130340 0.265320 -1.634520 28.855453 10.242373 -8.495550 -1.947764 -18.799037 -115.498753 15.349028 -37.394872 2.315727 -2.032833 -0.312160 0.452410 0.164760 0.028410 
-1.217170 13.277240 -3.407370 -54.340350 36.897907 -65.363426 -15.651795 11.499981 5.138378 -17.628025 -11.249051 -38.662165 3.178146 3.725346 21.614962 -0.544939 2.704561 3.742138 0.081540 -0.066570 -0.183700 18.130215 -8.509238 4.000755 -21.460555 8.837864 -36.871827 21.555230 -9.470954 30.606136 -0.446472 -5.839784 2.318772 -0.015420 0.555880 0.067920 -2.740511 -2.757542 -8.901119 -1.889580 8.346786 50.693880 -6.011434 8.994211 17.595806 5.282516 -1.837819 -15.210621 -7.343998 0.701665 42.832892 10.815170 -6.649850 -3.933560 -9.733659 -22.101714 8.978018 -22.956256 -10.634193 2.205292 3.022897 1.683861 -0.621694 -3.944692 2.647258 0.424670 0.127350 -0.107690 0.282830 -1.787657 29.821501 10.279005 -9.912235 -1.929947 -18.982392 -115.111327 15.686935 -37.427426 2.369492 -2.045285 -0.281050 0.446710 0.142210 0.056200 
-1.180850 13.113680 -3.490510 -52.002550 38.237347 -64.104170 -15.674593 10.945611 5.716171 -22.844392 -13.301563 -40.005095 10.885170 2.107066 24.619923 -0.450475 3.037966 3.628646 0.086120 -0.088270 -0.175550 18.204937 -8.354271 3.867367 -24.646475 7.222689 -36.401845 22.192589 -9.282144 27.758868 -0.379158 -5.745517 2.324851 -0.020300 0.567710 0.080470 -2.741977 -2.600632 -9.099954 -1.699992 7.809637 51.218473 -7.150013 8.391233 17.570012 5.829173 -2.477940 -15.227764 -8.515076 0.727356 42.200991 10.181520 -7.215690 -3.232220 -10.363660 -22.367015 8.900379 -23.951170 -10.710371 2.160016 3.548257 1.521986 -0.641834 -3.949151 2.691513 0.401690 0.136440 -0.134210 0.282830 -2.182752 30.496006 10.117476 -11.290679 -1.917868 -19.186912 -113.888625 16.434102 -37.268589 2.397329 -2.077022 -0.275750 0.429330 0.144150 0.058840 
-1.128350 12.948380 -3.563410 -49.664134 37.188306 -63.373335 -15.584365 10.480554 5.899859 -25.341203 -14.024499 -41.321852 16.036467 0.919899 26.201752 -0.406338 3.484461 3.484313 0.046700 -0.134070 -0.243080 18.361678 -8.316694 3.905678 -26.550701 7.352723 -36.074629 23.989609 -9.614890 26.824699 -0.389581 -5.937894 2.260152 -0.014810 0.634420 0.052780 -3.199700 -1.703547 -9.310033 2.402756 5.386892 52.314436 -10.304647 7.538340 17.670716 6.329058 -4.670221 -15.015462 -12.786886 1.614037 41.599427 11.334060 -8.754220 -4.408720 -10.239217 -21.688471 8.343290 -25.611647 -11.681632 2.506192 3.510870 1.848152 -0.673443 -3.976356 2.645539 0.413250 0.140180 -0.178960 0.284920 -3.158663 30.681438 9.603364 -12.691311 -0.745106 -19.262439 -113.056940 17.466810 -37.622157 2.385411 -2.020128 -0.325800 0.500700 0.201330 0.074510 
-1.071270 12.806440 -3.634170 -49.355998 36.519134 -64.041263 -15.450388 9.976328 5.941639 -26.068440 -14.806146 -41.716988 16.585340 0.602500 28.656005 -0.404040 3.891121 3.358842 -0.034230 -0.227820 -0.286500 18.557666 -8.239703 4.075704 -29.637785 7.512221 -34.904690 28.422796 -10.240828 24.568129 -0.482223 -6.283047 2.156661 -0.051250 0.668610 -0.020520 -3.820179 -0.655586 -9.587112 7.778618 1.633100 53.935248 -13.961207 5.646073 17.031911 6.769736 -6.311908 -15.422844 -16.830890 2.471908 42.799273 12.808370 -10.083600 -6.996310 -10.221239 -22.199268 8.663985 -26.840334 -11.196321 2.550972 3.301772 2.001504 -0.697320 -3.945866 2.484287 0.505350 0.100370 -0.183120 0.251370 -3.617045 31.120830 9.303521 -13.574745 0.241928 -19.453723 -112.536607 18.363838 -37.642075 2.382756 -1.847393 -0.415650 0.624890 0.273830 0.057760 
